<mxfile host="app.diagrams.net" modified="2023-06-06T17:49:15.214Z" agent="Mozilla/5.0 (Windows NT 10.0; Win64; x64) AppleWebKit/537.36 (KHTML, like Gecko) Chrome/114.0.0.0 Safari/537.36" etag="kOZZQsbXExLwa4wPTqel" version="21.3.7" type="github">
  <diagram id="C5RBs43oDa-KdzZeNtuy" name="Page-1">
    <mxGraphModel dx="1050" dy="581" grid="1" gridSize="10" guides="1" tooltips="1" connect="1" arrows="1" fold="1" page="1" pageScale="1" pageWidth="827" pageHeight="1169" math="0" shadow="0">
      <root>
        <mxCell id="WIyWlLk6GJQsqaUBKTNV-0" />
        <mxCell id="WIyWlLk6GJQsqaUBKTNV-1" parent="WIyWlLk6GJQsqaUBKTNV-0" />
        <mxCell id="qFMe0frA2DKLZ1qUmXfM-1" value="" style="rounded=0;html=1;jettySize=auto;orthogonalLoop=1;fontSize=11;endArrow=block;endFill=0;endSize=8;strokeWidth=1;shadow=0;labelBackgroundColor=none;edgeStyle=orthogonalEdgeStyle;" edge="1" parent="WIyWlLk6GJQsqaUBKTNV-1" source="qFMe0frA2DKLZ1qUmXfM-2" target="qFMe0frA2DKLZ1qUmXfM-4">
          <mxGeometry relative="1" as="geometry" />
        </mxCell>
        <mxCell id="qFMe0frA2DKLZ1qUmXfM-2" value="L&#39;utilisateur tape un caractère" style="rounded=1;whiteSpace=wrap;html=1;fontSize=12;glass=0;strokeWidth=1;shadow=0;" vertex="1" parent="WIyWlLk6GJQsqaUBKTNV-1">
          <mxGeometry x="79" y="50" width="120" height="40" as="geometry" />
        </mxCell>
        <mxCell id="qFMe0frA2DKLZ1qUmXfM-3" value="&amp;lt;= 2" style="edgeStyle=orthogonalEdgeStyle;rounded=0;html=1;jettySize=auto;orthogonalLoop=1;fontSize=11;endArrow=block;endFill=0;endSize=8;strokeWidth=1;shadow=0;labelBackgroundColor=none;entryX=1;entryY=0.5;entryDx=0;entryDy=0;" edge="1" parent="WIyWlLk6GJQsqaUBKTNV-1" source="qFMe0frA2DKLZ1qUmXfM-4" target="qFMe0frA2DKLZ1qUmXfM-2">
          <mxGeometry y="20" relative="1" as="geometry">
            <mxPoint as="offset" />
            <mxPoint x="239" y="180" as="targetPoint" />
            <Array as="points">
              <mxPoint x="219" y="180" />
              <mxPoint x="219" y="70" />
            </Array>
          </mxGeometry>
        </mxCell>
        <mxCell id="qFMe0frA2DKLZ1qUmXfM-25" value="&amp;gt; 2" style="edgeStyle=orthogonalEdgeStyle;rounded=0;orthogonalLoop=1;jettySize=auto;html=1;exitX=0.5;exitY=1;exitDx=0;exitDy=0;entryX=0.5;entryY=0;entryDx=0;entryDy=0;" edge="1" parent="WIyWlLk6GJQsqaUBKTNV-1" source="qFMe0frA2DKLZ1qUmXfM-4" target="qFMe0frA2DKLZ1qUmXfM-13">
          <mxGeometry relative="1" as="geometry" />
        </mxCell>
        <mxCell id="qFMe0frA2DKLZ1qUmXfM-4" value="Nombre de lettres tapées ?" style="rhombus;whiteSpace=wrap;html=1;shadow=0;fontFamily=Helvetica;fontSize=12;align=center;strokeWidth=1;spacing=6;spacingTop=-4;" vertex="1" parent="WIyWlLk6GJQsqaUBKTNV-1">
          <mxGeometry x="89" y="140" width="100" height="80" as="geometry" />
        </mxCell>
        <mxCell id="qFMe0frA2DKLZ1qUmXfM-18" value="oui" style="edgeStyle=orthogonalEdgeStyle;rounded=0;orthogonalLoop=1;jettySize=auto;html=1;exitX=0.5;exitY=1;exitDx=0;exitDy=0;" edge="1" parent="WIyWlLk6GJQsqaUBKTNV-1" source="qFMe0frA2DKLZ1qUmXfM-12">
          <mxGeometry x="-0.8786" relative="1" as="geometry">
            <mxPoint x="139" y="470" as="targetPoint" />
            <mxPoint as="offset" />
          </mxGeometry>
        </mxCell>
        <mxCell id="qFMe0frA2DKLZ1qUmXfM-27" value="non" style="edgeStyle=orthogonalEdgeStyle;rounded=0;orthogonalLoop=1;jettySize=auto;html=1;exitX=1;exitY=0.5;exitDx=0;exitDy=0;entryX=0;entryY=0.5;entryDx=0;entryDy=0;" edge="1" parent="WIyWlLk6GJQsqaUBKTNV-1" source="qFMe0frA2DKLZ1qUmXfM-12" target="qFMe0frA2DKLZ1qUmXfM-16">
          <mxGeometry relative="1" as="geometry" />
        </mxCell>
        <mxCell id="qFMe0frA2DKLZ1qUmXfM-12" value="Dans le restant, des recettes contiennent le groupe de lettres dans leurs ingrédients ?" style="rhombus;whiteSpace=wrap;html=1;" vertex="1" parent="WIyWlLk6GJQsqaUBKTNV-1">
          <mxGeometry x="299" y="260" width="200" height="140" as="geometry" />
        </mxCell>
        <mxCell id="qFMe0frA2DKLZ1qUmXfM-17" value="oui" style="edgeStyle=orthogonalEdgeStyle;rounded=0;orthogonalLoop=1;jettySize=auto;html=1;exitX=0.5;exitY=1;exitDx=0;exitDy=0;entryX=0.5;entryY=0;entryDx=0;entryDy=0;" edge="1" parent="WIyWlLk6GJQsqaUBKTNV-1" source="qFMe0frA2DKLZ1qUmXfM-13" target="qFMe0frA2DKLZ1qUmXfM-14">
          <mxGeometry x="-0.5" relative="1" as="geometry">
            <mxPoint as="offset" />
          </mxGeometry>
        </mxCell>
        <mxCell id="qFMe0frA2DKLZ1qUmXfM-26" value="non" style="edgeStyle=orthogonalEdgeStyle;rounded=0;orthogonalLoop=1;jettySize=auto;html=1;exitX=1;exitY=0.5;exitDx=0;exitDy=0;entryX=0;entryY=0.5;entryDx=0;entryDy=0;" edge="1" parent="WIyWlLk6GJQsqaUBKTNV-1" source="qFMe0frA2DKLZ1qUmXfM-13" target="qFMe0frA2DKLZ1qUmXfM-12">
          <mxGeometry relative="1" as="geometry" />
        </mxCell>
        <mxCell id="qFMe0frA2DKLZ1qUmXfM-13" value="Des recettes contiennent le groupe de lettres dans leur s titres ?" style="rhombus;whiteSpace=wrap;html=1;" vertex="1" parent="WIyWlLk6GJQsqaUBKTNV-1">
          <mxGeometry x="44" y="270" width="190" height="120" as="geometry" />
        </mxCell>
        <mxCell id="qFMe0frA2DKLZ1qUmXfM-24" style="edgeStyle=orthogonalEdgeStyle;rounded=0;orthogonalLoop=1;jettySize=auto;html=1;exitX=0.5;exitY=1;exitDx=0;exitDy=0;entryX=0.5;entryY=0;entryDx=0;entryDy=0;" edge="1" parent="WIyWlLk6GJQsqaUBKTNV-1" source="qFMe0frA2DKLZ1qUmXfM-14" target="qFMe0frA2DKLZ1qUmXfM-23">
          <mxGeometry relative="1" as="geometry" />
        </mxCell>
        <mxCell id="qFMe0frA2DKLZ1qUmXfM-14" value="Ajouter les recettes dans les résultats" style="rounded=1;whiteSpace=wrap;html=1;" vertex="1" parent="WIyWlLk6GJQsqaUBKTNV-1">
          <mxGeometry x="79" y="470" width="120" height="60" as="geometry" />
        </mxCell>
        <mxCell id="qFMe0frA2DKLZ1qUmXfM-19" value="oui" style="edgeStyle=orthogonalEdgeStyle;rounded=0;orthogonalLoop=1;jettySize=auto;html=1;exitX=0.5;exitY=1;exitDx=0;exitDy=0;" edge="1" parent="WIyWlLk6GJQsqaUBKTNV-1" source="qFMe0frA2DKLZ1qUmXfM-16">
          <mxGeometry x="-0.7679" relative="1" as="geometry">
            <mxPoint x="139" y="465" as="targetPoint" />
            <mxPoint x="559" y="325" as="sourcePoint" />
            <Array as="points">
              <mxPoint x="559" y="400" />
              <mxPoint x="559" y="435" />
              <mxPoint x="139" y="435" />
            </Array>
            <mxPoint as="offset" />
          </mxGeometry>
        </mxCell>
        <mxCell id="qFMe0frA2DKLZ1qUmXfM-21" value="non" style="edgeStyle=orthogonalEdgeStyle;rounded=0;orthogonalLoop=1;jettySize=auto;html=1;exitX=1;exitY=0.5;exitDx=0;exitDy=0;entryX=0.5;entryY=0;entryDx=0;entryDy=0;" edge="1" parent="WIyWlLk6GJQsqaUBKTNV-1" source="qFMe0frA2DKLZ1qUmXfM-16" target="qFMe0frA2DKLZ1qUmXfM-20">
          <mxGeometry relative="1" as="geometry" />
        </mxCell>
        <mxCell id="qFMe0frA2DKLZ1qUmXfM-16" value="Dans le restant, des recettes contiennent le groupe de lettres dans leurs descriptions ?" style="rhombus;whiteSpace=wrap;html=1;" vertex="1" parent="WIyWlLk6GJQsqaUBKTNV-1">
          <mxGeometry x="559" y="260" width="210" height="140" as="geometry" />
        </mxCell>
        <mxCell id="qFMe0frA2DKLZ1qUmXfM-20" value="Afficher &quot;Aucune recette ne contient &#39;xxx&#39;&quot;" style="rounded=1;whiteSpace=wrap;html=1;" vertex="1" parent="WIyWlLk6GJQsqaUBKTNV-1">
          <mxGeometry x="604" y="470" width="120" height="60" as="geometry" />
        </mxCell>
        <mxCell id="qFMe0frA2DKLZ1qUmXfM-23" value="Afficher la liste des recettes contenues dans les résultats" style="rounded=1;whiteSpace=wrap;html=1;" vertex="1" parent="WIyWlLk6GJQsqaUBKTNV-1">
          <mxGeometry x="79" y="610" width="120" height="60" as="geometry" />
        </mxCell>
      </root>
    </mxGraphModel>
  </diagram>
</mxfile>
